<svg width="50" height="50" viewBox="0 0 50 50" fill="none" xmlns="http://www.w3.org/2000/svg">
<g clip-path="url(#clip0_85_127)">
<path d="M39.5833 10.4167H33.3333V8.33337C33.3333 6.67577 32.6749 5.08606 31.5028 3.91396C30.3306 2.74185 28.7409 2.08337 27.0833 2.08337H22.9167C21.2591 2.08337 19.6693 2.74185 18.4972 3.91396C17.3251 5.08606 16.6667 6.67577 16.6667 8.33337V10.4167H10.4167C7.65501 10.42 5.00741 11.5185 3.05462 13.4713C1.10184 15.4241 0.00330804 18.0717 0 20.8334L0 37.5C0.00330804 40.2617 1.10184 42.9093 3.05462 44.8621C5.00741 46.8149 7.65501 47.9134 10.4167 47.9167H39.5833C42.345 47.9134 44.9926 46.8149 46.9454 44.8621C48.8982 42.9093 49.9967 40.2617 50 37.5V20.8334C49.9967 18.0717 48.8982 15.4241 46.9454 13.4713C44.9926 11.5185 42.345 10.42 39.5833 10.4167ZM20.8333 8.33337C20.8333 7.78084 21.0528 7.25094 21.4435 6.86023C21.8342 6.46953 22.3641 6.25004 22.9167 6.25004H27.0833C27.6359 6.25004 28.1658 6.46953 28.5565 6.86023C28.9472 7.25094 29.1667 7.78084 29.1667 8.33337V10.4167H20.8333V8.33337ZM45.8333 37.5C45.8333 39.1576 45.1749 40.7474 44.0028 41.9195C42.8306 43.0916 41.2409 43.75 39.5833 43.75H10.4167C8.75906 43.75 7.16935 43.0916 5.99725 41.9195C4.82515 40.7474 4.16667 39.1576 4.16667 37.5V20.8334C4.16667 19.1758 4.82515 17.5861 5.99725 16.414C7.16935 15.2419 8.75906 14.5834 10.4167 14.5834H39.5833C41.2409 14.5834 42.8306 15.2419 44.0028 16.414C45.1749 17.5861 45.8333 19.1758 45.8333 20.8334V37.5ZM33.3333 29.1667C33.3333 29.7192 33.1138 30.2491 32.7231 30.6398C32.3324 31.0305 31.8025 31.25 31.25 31.25H27.0833V35.4167C27.0833 35.9692 26.8638 36.4991 26.4731 36.8898C26.0824 37.2805 25.5525 37.5 25 37.5C24.4475 37.5 23.9176 37.2805 23.5269 36.8898C23.1362 36.4991 22.9167 35.9692 22.9167 35.4167V31.25H18.75C18.1975 31.25 17.6676 31.0305 17.2769 30.6398C16.8862 30.2491 16.6667 29.7192 16.6667 29.1667C16.6667 28.6142 16.8862 28.0843 17.2769 27.6936C17.6676 27.3029 18.1975 27.0834 18.75 27.0834H22.9167V22.9167C22.9167 22.3642 23.1362 21.8343 23.5269 21.4436C23.9176 21.0529 24.4475 20.8334 25 20.8334C25.5525 20.8334 26.0824 21.0529 26.4731 21.4436C26.8638 21.8343 27.0833 22.3642 27.0833 22.9167V27.0834H31.25C31.8025 27.0834 32.3324 27.3029 32.7231 27.6936C33.1138 28.0843 33.3333 28.6142 33.3333 29.1667Z" fill="#FF5528"/>
</g>
<defs>
<clipPath id="clip0_85_127">
<rect width="50" height="50" fill="white"/>
</clipPath>
</defs>
</svg>
