<svg width="50" height="50" viewBox="0 0 50 50" fill="none" xmlns="http://www.w3.org/2000/svg">
<g clip-path="url(#clip0_85_117)">
<path d="M45.9522 10.8957L30.5897 3.57699C27.208 1.55707 22.9991 1.52123 19.5834 3.48324L4.04809 10.8957C3.98979 10.9249 3.92934 10.9562 3.87309 10.9895C0.186368 13.0975 -1.09351 17.7951 1.01449 21.4818C1.72904 22.7316 2.78012 23.7556 4.04809 24.4374L8.33354 26.4791V36.6874C8.33607 41.2522 11.3063 45.285 15.6648 46.6416C18.6979 47.5191 21.8429 47.9487 25.0002 47.9166C28.1571 47.952 31.3021 47.526 34.3357 46.6521C38.6942 45.2955 41.6644 41.2626 41.6669 36.6979V26.4749L45.8336 24.4832V41.6665C45.8336 42.8171 46.7663 43.7498 47.9169 43.7498C49.0675 43.7498 50.0002 42.8171 50.0002 41.6665V16.6665C50.0141 14.2202 48.0825 11.9602 45.9522 10.8957ZM37.5001 36.6979C37.5012 39.4283 35.7297 41.8434 33.1251 42.6624C30.4839 43.4171 27.7469 43.7834 25.0001 43.7499C22.2534 43.7834 19.5163 43.4171 16.8751 42.6624C14.2705 41.8433 12.4991 39.4283 12.5001 36.6979V28.4646L19.4106 31.7563C21.1157 32.7688 23.063 33.3008 25.046 33.2958C26.9335 33.3092 28.7893 32.8095 30.4148 31.85L37.5001 28.4645V36.6979ZM44.1668 20.677L28.4543 28.177C26.2635 29.4527 23.548 29.4165 21.3918 28.0832L6.01889 20.7707C4.30531 19.8467 3.66527 17.7085 4.5893 15.9951C4.9018 15.4156 5.37035 14.9352 5.94184 14.6082L21.5564 7.14994C23.7479 5.87709 26.462 5.91313 28.6189 7.24369L43.9814 14.5624C45.1112 15.1898 45.818 16.3745 45.8334 17.6666C45.8355 18.8907 45.2052 20.0289 44.1668 20.677Z" fill="#FF5528"/>
</g>
<defs>
<clipPath id="clip0_85_117">
<rect width="50" height="50" fill="white"/>
</clipPath>
</defs>
</svg>
