<svg width="50" height="50" viewBox="0 0 50 50" fill="none" xmlns="http://www.w3.org/2000/svg">
<g clip-path="url(#clip0_85_137)">
<path d="M25.2833 39.7979C24.2167 39.7979 23.1521 39.4417 22.2625 38.7292C19.3437 36.3917 13.8229 30.7021 13.8229 25.8979C13.8229 21.9563 16.8604 18.7521 20.5938 18.7521C22.4479 18.7521 24.0833 19.4146 25.2812 20.5271C26.4792 19.4167 28.1146 18.7521 29.9688 18.7521C33.7021 18.7521 36.7396 21.9584 36.7396 25.8979C36.7396 30.7042 31.2208 36.3938 28.3021 38.7313C27.4125 39.4438 26.3479 39.7979 25.2833 39.7979ZM20.5938 22.9167C19.1583 22.9167 17.9896 24.2542 17.9896 25.8959C17.9896 28.5542 21.9833 33.1667 24.8667 35.475C25.1125 35.6771 25.4479 35.6771 25.6979 35.475C28.5812 33.1667 32.5729 28.5542 32.5729 25.8938C32.5729 24.25 31.4042 22.9146 29.9688 22.9146C28.6729 22.9146 27.3646 23.6938 27.3646 25.4334C27.3646 26.5834 26.4333 27.5167 25.2812 27.5167C24.1292 27.5167 23.1979 26.5834 23.1979 25.4334C23.1979 23.5729 21.7937 22.9146 20.5938 22.9146V22.9167ZM39.5833 50H10.4167C4.67292 50 0 45.3271 0 39.5834V20.2584C0 16.7917 1.71458 13.5646 4.58958 11.6229L19.1729 1.78127C22.7104 -0.606226 27.2875 -0.608309 30.8292 1.78127L45.4125 11.6209C48.2854 13.5604 50 16.7875 50 20.2563V39.5813C50 45.325 45.3271 50 39.5833 50ZM25.0021 4.16252C23.7833 4.16252 22.5667 4.52086 21.5042 5.23752L6.92083 15.0771C5.19583 16.2417 4.16667 18.1771 4.16667 20.2584V39.5834C4.16667 43.0292 6.97083 45.8334 10.4167 45.8334H39.5833C43.0292 45.8334 45.8333 43.0292 45.8333 39.5834V20.2584C45.8333 18.1771 44.8042 16.2396 43.0812 15.0771L28.4979 5.23752C27.4354 4.52086 26.2188 4.16252 25.0021 4.16252Z" fill="#FF5528"/>
</g>
<defs>
<clipPath id="clip0_85_137">
<rect width="50" height="50" fill="white"/>
</clipPath>
</defs>
</svg>
