<svg width="50" height="50" viewBox="0 0 50 50" fill="none" xmlns="http://www.w3.org/2000/svg">
<g clip-path="url(#clip0_340_51)">
<path d="M48.4607 17.9167C47.4398 16.9833 46.0732 16.5417 44.7086 16.6979C32.9252 18.0604 27.5086 25.9375 25.0252 32.4667C22.5419 25.9375 17.1252 18.0583 5.34399 16.6979C3.97941 16.5354 2.61066 16.9833 1.58774 17.9187C0.57524 18.8458 0.0169063 20.1542 0.0502397 21.5062C0.23149 28.3187 2.45857 33.7292 6.67316 37.5896C12.1044 42.5667 19.3461 43.5542 22.9419 43.7208V47.9167C22.9419 49.0687 23.8732 50 25.0252 50C26.1773 50 27.1086 49.0687 27.1086 47.9167V43.7208C30.7065 43.5542 37.9461 42.5667 43.3794 37.5896C47.5919 33.7292 49.8211 28.3187 50.0023 21.5062C50.0377 20.1521 49.4732 18.8438 48.4607 17.9167ZM9.48774 34.5167C6.13982 31.4479 4.36691 27.0354 4.21899 21.3958C4.21274 21.1958 4.33149 21.0562 4.40232 20.9917C4.47107 20.9292 4.60857 20.8312 4.79816 20.8312C4.81899 20.8312 4.84191 20.8312 4.86274 20.8333C18.544 22.4146 21.8898 34.4625 22.6961 39.5292C19.5669 39.3292 13.7419 38.4125 9.48774 34.5146V34.5167ZM40.5836 34.4979C36.3523 38.3896 30.5002 39.3187 27.3565 39.525C28.1627 34.4542 31.5127 22.4167 45.1898 20.8354C45.2127 20.8354 45.2336 20.8333 45.2544 20.8333C45.444 20.8333 45.5794 20.9292 45.6482 20.9917C45.719 21.0583 45.8398 21.1979 45.8336 21.3979C45.6857 27.025 43.919 31.4312 40.5815 34.5L40.5836 34.4979ZM16.2127 9.78333C15.4107 8.95833 15.4315 7.63958 16.2565 6.8375L22.0773 1.19792C22.8752 0.397917 23.9357 0 24.9982 0C24.9982 0 24.9982 0 25.0002 0C26.0648 0.00208333 27.1315 0.408333 27.9461 1.22083L33.7419 6.8375C34.5669 7.63958 34.5877 8.95833 33.7857 9.78333C33.3773 10.2062 32.8336 10.4167 32.2898 10.4167C31.7669 10.4167 31.244 10.2208 30.8398 9.82917L27.0815 6.1875V18.75C27.0815 19.9 26.1502 20.8333 24.9982 20.8333C23.8461 20.8333 22.9148 19.9 22.9148 18.75V6.21458L19.1565 9.82917C18.3315 10.6271 17.0169 10.6104 16.2127 9.78333Z" fill="#FF5528"/>
</g>
<defs>
<clipPath id="clip0_340_51">
<rect width="50" height="50" fill="white"/>
</clipPath>
</defs>
</svg>
