<svg width="100" height="100" viewBox="0 0 100 100" fill="none" xmlns="http://www.w3.org/2000/svg">
<g clip-path="url(#clip0_187_6)">
<path d="M3.22161e-05 50.0156C0.03104 22.3257 22.4496 -0.061887 50.0776 0.00012853C77.7055 0.062144 100.062 22.5118 100 50.1707C99.969 77.8296 77.4884 100.062 49.6434 100C22.3256 99.9381 -0.0309755 77.3955 3.22161e-05 50.0156ZM33.3024 50.0156C33.3024 54.8839 33.3024 59.7831 33.3024 64.6513C33.3024 66.3877 33.2714 68.1242 33.3024 69.8916C33.3644 71.597 34.5427 72.6203 36.1241 72.3102C36.6512 72.2172 37.1473 71.9381 37.6124 71.69C49.7985 65.2714 61.9845 58.8528 74.2016 52.4652C75.2558 51.9071 76.2171 51.38 76.1861 50.0466C76.1551 48.7443 75.2248 48.1242 74.1706 47.597C71.2868 46.1087 68.4031 44.5583 65.5504 43.0699C56.1241 38.1087 46.7287 33.1784 37.3024 28.2172C36.4651 27.7831 35.5969 27.411 34.6667 27.8761C33.5194 28.4342 33.3024 29.4265 33.3024 30.6048C33.3334 37.0544 33.3024 43.535 33.3024 50.0156Z" fill="#FFA415"/>
<path d="M36.6879 49.4498C36.6879 44.4555 36.6879 39.485 36.6879 34.4906C36.6879 33.6064 36.8565 32.8179 37.7477 32.3877C38.4944 32.0293 39.1447 32.316 39.795 32.6506C47.1173 36.474 54.4154 40.2975 61.7377 44.097C63.9777 45.2679 66.1936 46.4389 68.4337 47.5859C69.2526 47.9921 69.9752 48.4701 69.9993 49.4737C70.0234 50.5013 69.2767 50.9075 68.4577 51.3376C58.9677 56.2603 49.5018 61.2069 40.0359 66.1535C39.6746 66.3446 39.2892 66.5597 38.8798 66.6314C37.6514 66.8465 36.7361 66.0579 36.6879 64.7675C36.6397 63.4293 36.6879 62.0911 36.6879 60.729C36.6879 56.9533 36.6879 53.2016 36.6879 49.4498Z" fill="white"/>
</g>
<defs>
<clipPath id="clip0_187_6">
<rect width="100" height="100" fill="white"/>
</clipPath>
</defs>
</svg>
