<svg width="58" height="58" viewBox="0 0 58 58" fill="none" xmlns="http://www.w3.org/2000/svg">
<g clip-path="url(#clip0_215_44)">
<path d="M55.5833 26.5833H31.4167V2.41667C31.4167 1.77573 31.1621 1.16104 30.7088 0.707825C30.2556 0.254612 29.6409 0 29 0C28.3591 0 27.7444 0.254612 27.2912 0.707825C26.8379 1.16104 26.5833 1.77573 26.5833 2.41667V26.5833H2.41667C1.77573 26.5833 1.16104 26.8379 0.707825 27.2912C0.254612 27.7444 0 28.3591 0 29C0 29.6409 0.254612 30.2556 0.707825 30.7088C1.16104 31.1621 1.77573 31.4167 2.41667 31.4167H26.5833V55.5833C26.5833 56.2243 26.8379 56.839 27.2912 57.2922C27.7444 57.7454 28.3591 58 29 58C29.6409 58 30.2556 57.7454 30.7088 57.2922C31.1621 56.839 31.4167 56.2243 31.4167 55.5833V31.4167H55.5833C56.2243 31.4167 56.839 31.1621 57.2922 30.7088C57.7454 30.2556 58 29.6409 58 29C58 28.3591 57.7454 27.7444 57.2922 27.2912C56.839 26.8379 56.2243 26.5833 55.5833 26.5833Z" fill="white"/>
</g>
<defs>
<clipPath id="clip0_215_44">
<rect width="58" height="58" fill="white"/>
</clipPath>
</defs>
</svg>
