<svg class="cs_accent_color" width="41" height="37" viewBox="0 0 41 37" fill="none" xmlns="http://www.w3.org/2000/svg">
                <path d="M37.0872 18.5001H30.707V13.3959C30.707 10.5806 32.9959 8.29175 35.8112 8.29175H36.4492C37.5099 8.29175 38.3633 7.4384 38.3633 6.37769V2.54956C38.3633 1.48885 37.5099 0.635498 36.4492 0.635498H35.8112C28.7611 0.635498 23.0508 6.34578 23.0508 13.3959V32.5365C23.0508 34.65 24.7655 36.3647 26.8789 36.3647H37.0872C39.2007 36.3647 40.9154 34.65 40.9154 32.5365V22.3282C40.9154 20.2148 39.2007 18.5001 37.0872 18.5001ZM14.1185 18.5001H7.73828V13.3959C7.73828 10.5806 10.0272 8.29175 12.8424 8.29175H13.4805C14.5412 8.29175 15.3945 7.4384 15.3945 6.37769V2.54956C15.3945 1.48885 14.5412 0.635498 13.4805 0.635498H12.8424C5.79232 0.635498 0.0820312 6.34578 0.0820312 13.3959V32.5365C0.0820312 34.65 1.79671 36.3647 3.91016 36.3647H14.1185C16.2319 36.3647 17.9466 34.65 17.9466 32.5365V22.3282C17.9466 20.2148 16.2319 18.5001 14.1185 18.5001Z" fill="currentColor"/>
              </svg>