<svg width="22" height="22" viewBox="0 0 22 22" fill="none" xmlns="http://www.w3.org/2000/svg">
<g clip-path="url(#clip0_215_77)">
<path d="M8.25 11C11.2832 11 13.75 8.53325 13.75 5.5C13.75 2.46675 11.2832 0 8.25 0C5.21675 0 2.75 2.46675 2.75 5.5C2.75 8.53325 5.21675 11 8.25 11ZM8.25 1.83333C10.2722 1.83333 11.9167 3.47783 11.9167 5.5C11.9167 7.52217 10.2722 9.16667 8.25 9.16667C6.22783 9.16667 4.58333 7.52217 4.58333 5.5C4.58333 3.47783 6.22783 1.83333 8.25 1.83333ZM21.1952 10.8891C20.1557 9.84958 18.3443 9.84958 17.3057 10.8891L10.0833 18.1106V22H13.9728L21.1943 14.7785C21.714 14.2587 22 13.5685 22 12.8333C22 12.0982 21.714 11.4079 21.1952 10.8891ZM19.8981 13.4814L13.2137 20.1667H11.9167V18.8696L18.6019 12.1853C18.9475 11.8388 19.5516 11.8388 19.8981 12.1853C20.0713 12.3576 20.1667 12.5877 20.1667 12.8333C20.1667 13.079 20.0713 13.3082 19.8981 13.4814ZM10.9349 14.6667H4.58333C3.06717 14.6667 1.83333 15.9005 1.83333 17.4167V22H0V17.4167C0 14.8894 2.05608 12.8333 4.58333 12.8333H11.9167C12.1816 12.8333 12.4373 12.8682 12.6903 12.9113L10.9349 14.6667Z" fill="#FF5528"/>
</g>
<defs>
<clipPath id="clip0_215_77">
<rect width="22" height="22" fill="white"/>
</clipPath>
</defs>
</svg>
