<svg width="143" height="143" viewBox="0 0 143 143" fill="none" xmlns="http://www.w3.org/2000/svg">
<g clip-path="url(#clip0_85_73)">
<path d="M85.5913 70.6956L127.741 28.5464C131.232 25.0548 136.887 25.0548 140.378 28.5464C143.87 32.032 143.87 37.6984 140.378 41.184L98.229 83.3333L85.5913 70.6956ZM79.4364 64.5466L122.658 21.3249C126.15 17.8393 126.15 12.1729 122.658 8.68725C119.167 5.19567 113.512 5.19567 110.021 8.68725L66.7987 51.909L79.4364 64.5466ZM140.617 65.7502C137.137 62.2646 131.482 62.2527 127.979 65.7383L76.2546 117.337C65.619 127.973 48.31 127.979 37.6685 117.337L26.9256 106.595C19.4479 99.1169 19.4479 86.95 26.9256 79.4723L91.0313 15.3665C94.5229 11.875 94.5229 6.21454 91.0313 2.72892C87.5397 -0.762666 81.8852 -0.762666 78.3937 2.72892L23.9881 57.1345V42.4531C23.9881 36.5186 19.9305 31.0131 14.0735 30.0598C6.60766 28.8443 0.154785 34.5762 0.154785 41.8156V87.9629C0.154785 97.6035 3.69999 106.851 10.0158 114.06C11.273 115.878 12.6792 117.618 14.2939 119.238L25.0368 129.981C33.8432 138.787 45.4024 143.191 56.9675 143.191C68.5326 143.191 80.0858 138.787 88.8922 129.987L140.611 78.3997C144.102 74.9201 144.114 69.2597 140.622 65.7621L140.617 65.7502ZM56.5981 87.6948C56.5981 81.4743 51.9267 77.4583 46.171 77.4583C40.4152 77.4583 35.7439 82.4991 35.7439 88.7196C35.7439 100.511 56.5981 114.996 56.5981 114.996C56.5981 114.996 77.4522 100.511 77.4522 88.7196C77.4522 82.4991 72.7809 77.4583 67.0252 77.4583C61.2694 77.4583 56.5981 81.4743 56.5981 87.6948Z" fill="#FF5528" fill-opacity="0.25"/>
</g>
<defs>
<clipPath id="clip0_85_73">
<rect width="143" height="143" fill="white"/>
</clipPath>
</defs>
</svg>
