<svg width="463" height="542" viewBox="0 0 463 542" fill="none" xmlns="http://www.w3.org/2000/svg">
<g clip-path="url(#clip0_166_69)">
<path fill-rule="evenodd" clip-rule="evenodd" d="M51.8773 204.19C51.2306 199.392 51.5329 196.078 52.2955 191.482C52.7499 188.911 54.3444 186.236 56.9552 186.76C58.2952 187.002 59.724 189.317 60.2945 190.465C61.5663 193.147 62.0784 194.514 63.0732 197.357C63.6633 200.617 64.3226 203.838 64.8298 206.316C66.2684 212.965 67.3101 219.567 68.4318 226.307C68.6669 227.833 69.0512 229.458 69.6724 230.854L72.5524 231.685C73.4837 229.3 72.603 225.376 72.3065 223.423C71.9485 221.044 71.5905 218.665 71.3018 216.246C71.1038 214.144 70.9058 212.042 70.8862 209.93C70.8296 208.392 70.7038 206.895 70.578 205.398C70.4336 204.189 70.3292 203.048 70.1156 201.879C69.8084 199.747 69.346 196.228 69.5898 193.132L69.5206 193.172C69.0446 188.83 69.1839 184.594 70.1757 180.235C71.7019 173.444 76.3598 177.034 76.5997 177.45C77.1088 178.172 77.5194 179.043 77.89 179.844C78.3913 181.033 78.8234 182.261 79.2954 183.558C80.1088 185.766 80.7038 187.916 81.0618 190.295C81.5319 193.348 82.1639 194.923 82.3726 197.203C83.1725 205.145 82.9015 213.151 84.1276 221.031C84.2612 222.062 84.4641 223.053 84.6669 224.044C84.7791 224.718 84.8913 225.392 85.0327 225.957C85.1849 226.7 85.1449 226.631 85.297 227.374C85.4999 228.365 86.3621 232.577 88.4316 231.844C89.521 231.492 89.8506 229.824 90.0446 228.881C90.539 226.379 90.498 223.91 90.5263 221.4C90.6636 212.363 88.0546 203.527 88.0828 194.461C88.1169 193.24 87.4897 190.555 87.6886 188.501C87.4477 185.685 87.3423 182.144 88.7291 179.589C89.7619 177.7 92.2497 177.372 93.8326 178.674C95.2663 179.878 95.989 181.769 96.7009 183.482C97.7543 186.106 98.9168 188.76 99.8317 191.463C100.562 192.889 100.52 194.575 100.825 196.062C101.412 198.678 102.068 201.254 103.041 203.739C103.804 205.7 104.636 207.621 105.607 209.461C106.577 211.302 108.203 213.318 110.347 213.835C111.946 214.205 113.541 213.93 115.111 214.409C117.157 215.075 119.096 216.356 120.621 217.877C123.55 220.711 125.669 224.382 127.778 227.874C131.925 234.898 133.945 242.874 137.886 250.019C140.655 254.976 145.941 267.808 145.746 268.751C146.304 271.477 146.378 274.482 145.697 277.461C144.599 282.435 153.701 288.446 153.701 288.446L330.083 421.725L265.26 509.017C248.648 489.519 140.631 354.078 128.327 341.881C116.441 330.089 104.515 318.229 90.5581 308.926C79.8145 301.831 66.3597 296.116 59.7803 284.401C49.9513 266.897 57.8135 244.535 52.1742 225.812C52.295 221.864 51.7313 217.849 51.9614 213.93C52.1759 210.943 51.1089 207.496 51.8773 204.19Z" fill="#E27960"/>
<path fill-rule="evenodd" clip-rule="evenodd" d="M103.144 143.471C98.3974 144.364 95.2892 145.697 91.2331 147.946C88.9774 149.156 86.9352 151.536 88.1856 153.861C88.8653 155.039 91.4868 155.742 92.7469 155.845C95.7039 156.17 97.2116 156.222 100.118 156.299C103.389 155.888 106.66 155.477 109.148 155.149C115.908 154.386 122.469 153.276 129.248 152.225C130.774 151.99 132.41 151.784 133.997 151.976L135.725 154.488C133.709 156.113 129.724 156.567 127.811 156.933C125.473 157.359 123.065 157.826 120.726 158.253C118.675 158.698 116.595 159.253 114.624 159.837C113.178 160.21 111.702 160.692 110.216 160.997C109.047 161.21 107.917 161.493 106.748 161.706C104.657 162.082 101.149 162.722 98.2885 164.004L98.3177 163.895C94.0373 164.796 90.1168 166.321 86.2792 168.629C80.335 172.246 85.1899 175.538 85.6269 175.655C86.5007 175.889 87.4038 176.014 88.3761 176.099C89.6362 176.203 91.0347 176.226 92.324 176.221C94.6549 176.26 96.9058 176.161 99.2844 175.804C102.297 175.265 104.023 175.376 106.322 174.88C114.1 173.16 121.594 170.311 129.503 168.977C130.494 168.774 131.525 168.641 132.555 168.507C133.229 168.395 133.834 168.323 134.508 168.211C135.291 168.128 135.182 168.099 135.965 168.016C136.996 167.883 141.298 167.338 141.219 169.6C141.214 170.711 139.8 171.62 138.86 172.071C136.713 173.31 134.287 174.064 131.9 174.888C123.374 177.871 114.152 178.209 105.587 181.123C104.428 181.514 101.722 181.784 99.8707 182.576C97.1166 183.242 93.7392 184.269 91.7156 186.361C90.2352 187.954 90.7024 190.362 92.453 191.476C94.0544 192.49 96.0283 192.551 97.933 192.652C100.81 192.838 103.618 193.064 106.484 193.071C108.043 193.372 109.686 192.7 111.183 192.575C113.849 192.236 116.497 192.184 119.225 192.272C121.308 192.362 123.362 192.561 125.496 192.899C127.521 193.208 130.014 194.169 131.094 196.039C131.894 197.424 132.209 199.089 133.147 200.394C134.434 202.145 136.276 203.575 138.194 204.499C141.852 206.358 145.952 207.223 149.943 208.058C157.965 209.799 166.094 209.168 174.134 210.621C179.713 211.648 193.493 212.65 194.394 212.13C197.238 211.781 199.982 210.935 202.642 209.307C207.034 206.679 215.574 213.476 215.574 213.476L399.739 339.768L456.408 247.949C432.691 238.371 273.392 180.095 257.915 172.317C242.954 164.794 227.953 157.201 214.726 146.923C204.544 139.042 194.893 128.084 181.81 125.572C162.096 121.809 143.408 136.293 123.853 136.963C120.209 138.328 116.136 139.109 112.533 140.543C109.622 141.578 106.041 141.613 103.144 143.471Z" fill="#E27960"/>
<path fill-rule="evenodd" clip-rule="evenodd" d="M96.7295 257.25C101.5 261.515 105.431 266.725 108.491 272.345C111.483 278.006 113.614 284.256 114.812 290.49C114.863 290.737 115.162 290.935 115.409 290.884C115.657 290.833 115.854 290.535 115.803 290.287C114.594 283.875 112.394 277.665 109.322 271.866C106.251 266.067 102.28 260.787 97.4005 256.493C97.2113 256.326 96.9236 256.307 96.6866 256.536C96.5189 256.725 96.5403 257.082 96.7295 257.25Z" fill="black"/>
<path fill-rule="evenodd" clip-rule="evenodd" d="M169.957 170.924C177.982 175.709 186.722 180.452 195.878 183.2C202.046 185.087 208.408 186.032 214.891 185.428C215.139 185.378 215.376 185.148 215.325 184.901C215.274 184.653 215.045 184.416 214.798 184.466C208.453 184.99 202.2 184.075 196.142 182.217C187.094 179.498 178.395 174.825 170.439 169.999C170.18 169.871 169.932 169.922 169.805 170.18C169.717 170.508 169.768 170.756 169.957 170.924Z" fill="black"/>
<path fill-rule="evenodd" clip-rule="evenodd" d="M172.457 242.895C163.791 250.114 152.189 252.565 141.409 255.003C116.739 260.565 90.2267 262.298 66.1551 253.386C54.8001 249.23 43.3718 242.068 37.2723 231.184C26.4036 211.879 44.4417 189.552 62.4625 183.026C73.8193 178.87 86.1505 179.6 97.8937 181.87C91.7269 169.27 87.5896 155.868 91.7498 141.645C92.8537 137.961 94.6053 134.918 96.8522 131.774C98.9607 128.709 101.935 126.346 104.96 124.23C118.614 114.777 137.729 119.901 149.715 129.788C154.165 133.498 157.875 138.005 161.101 142.792C171.275 157.696 175.534 176.107 176.607 193.956C177.147 203.526 175.048 234.75 172.457 242.895Z" fill="#E593BF"/>
<path fill-rule="evenodd" clip-rule="evenodd" d="M92.5833 178.749C92.7618 178.738 92.9803 178.797 93.0895 178.826C96.4142 179.308 99.7603 180.146 102.771 181.363C103.248 181.549 105.046 182.266 106.498 183.182C106.946 183.477 107.434 183.842 107.703 184.149C107.892 184.316 108.012 184.524 107.954 184.743C107.69 185.726 106.739 185.998 105.738 186.022C104.022 186.089 101.976 185.423 101.092 185.011C98.4087 183.882 95.8613 182.028 93.6893 179.865C93.3109 179.529 93.0017 179.154 92.5833 178.749ZM91.2141 178.616C88.4755 178.35 85.7077 178.194 83.1691 178.274C73.5101 178.495 62.992 181.705 54.8165 187.533C46.4625 193.372 40.4511 201.829 39.9149 212.574C39.3495 223.428 43.6154 232.416 50.3927 239.677C60.6185 250.672 76.5778 257.526 89.8794 260.097C100.61 262.213 112.014 261.816 122.847 260.271C146.823 256.864 167.757 247.548 170.231 246.397C170.427 243.698 171.718 222.267 171.241 202.411C170.969 190.747 170.125 179.691 168.162 173.252C165.556 165.061 162.881 156.909 159.087 149.218C156.525 144.141 153.587 139.373 149.779 135.015C143.279 127.594 133.71 121.575 123.842 119.515C113.905 117.495 103.709 119.504 96.1821 128.374C91.4961 133.85 87.9112 141.553 86.3109 149.495C84.7106 157.437 85.1058 165.797 88.4091 172.478C89.2703 174.29 90.3792 176.051 91.6958 177.691C92.202 177.769 92.7774 177.806 93.2836 177.883C96.7175 178.394 100.064 179.232 103.184 180.478C103.77 180.694 106.194 181.695 107.657 182.79C108.592 183.45 109.072 184.282 108.867 185.046C108.447 186.397 107.259 186.898 105.762 187.024C103.938 187.061 101.673 186.337 100.719 185.964C97.8869 184.737 95.2703 182.923 93.0184 180.622C92.3308 179.911 91.7924 179.298 91.2141 178.616ZM90.3958 177.519C87.945 177.271 85.5049 177.203 83.1447 177.272C73.3073 177.504 62.6506 180.794 54.2274 186.673C45.7057 192.701 39.5666 201.416 39.0118 212.449C38.4279 223.591 42.7845 232.896 49.711 240.255C60.126 251.418 76.3038 258.331 89.7146 260.931C100.485 263.116 112.068 262.708 123.039 261.084C148.789 257.391 170.988 247.068 170.988 247.068C171.126 246.988 171.225 246.839 171.214 246.66C171.214 246.66 172.765 223.601 172.242 202.387C172 190.614 171.076 179.419 169.113 172.98C166.507 164.789 163.821 156.459 159.958 148.808C157.356 143.661 154.378 138.824 150.53 134.397C143.949 126.837 134.123 120.691 124.036 118.572C113.772 116.464 103.258 118.563 95.4946 127.663C90.71 133.288 87.0958 141.1 85.4371 149.261C83.7783 157.422 84.1842 165.96 87.6075 172.849C88.2794 174.493 89.2684 176.046 90.3958 177.519Z" fill="black"/>
<path fill-rule="evenodd" clip-rule="evenodd" d="M54.8724 249.834C53.2348 245.239 54.287 238.906 55.9127 234.366C56.2452 233.343 56.844 231.981 57.7734 231.352C60.3539 229.585 63.7889 232.497 65.2655 234.415C68.2586 238.32 69.6884 243.035 70.8998 247.692C72.8075 254.994 73.9029 262.488 74.6413 270.003" fill="#E27960"/>
<mask id="mask0_166_69" style="mask-type:luminance" maskUnits="userSpaceOnUse" x="54" y="230" width="21" height="41">
<path d="M54.8724 249.834C53.2348 245.239 54.287 238.906 55.9127 234.366C56.2452 233.343 56.844 231.981 57.7734 231.352C60.3539 229.585 63.7889 232.497 65.2655 234.415C68.2586 238.32 69.6884 243.035 70.8998 247.692C72.8075 254.994 73.9029 262.488 74.6413 270.003" fill="white"/>
</mask>
<g mask="url(#mask0_166_69)">
<path fill-rule="evenodd" clip-rule="evenodd" d="M53.3861 243.582C54.4491 243.984 55.5892 243.88 56.6893 243.706C57.7202 243.573 58.751 243.439 59.8111 243.197C60.0588 243.146 60.485 243.085 60.722 242.856C61.1267 242.437 61.1238 241.793 61.2008 241.286C61.2857 240.314 61.192 239.352 61.0984 238.39C60.719 235.654 58.7196 232.191 55.5363 232.275C54.1778 232.32 53.1392 232.92 52.1113 233.698" fill="#E5937E"/>
</g>
<path fill-rule="evenodd" clip-rule="evenodd" d="M150.731 130.587C145.803 130.847 140.343 134.183 136.807 137.333C136.027 138.061 134.94 139.057 134.757 140.179C134.116 143.227 138.073 145.283 140.476 145.927C145.242 147.146 150.13 146.817 154.928 146.171C162.391 145.187 169.732 143.35 176.982 141.195" fill="#E27960"/>
<mask id="mask1_166_69" style="mask-type:luminance" maskUnits="userSpaceOnUse" x="134" y="130" width="43" height="17">
<path d="M150.731 130.587C145.803 130.847 140.343 134.183 136.807 137.333C136.027 138.061 134.94 139.057 134.757 140.179C134.116 143.227 138.073 145.283 140.476 145.927C145.242 147.146 150.13 146.817 154.928 146.171C162.391 145.187 169.732 143.35 176.982 141.195" fill="white"/>
</mask>
<g mask="url(#mask1_166_69)">
<path fill-rule="evenodd" clip-rule="evenodd" d="M147.555 130.204C147.397 132.327 147.991 134.477 148.12 136.619C148.185 137.69 148.34 139.078 147.898 140.072C146.934 141.921 143.991 142.42 142.126 142.388C139.865 142.309 137.345 142.102 135.503 140.672C131.901 137.95 132.58 132.57 136.24 130.273" fill="#E5937E"/>
</g>
<path fill-rule="evenodd" clip-rule="evenodd" d="M162.322 145.227C169.027 145.327 175.548 144.148 182.087 142.681C182.334 142.63 182.462 142.372 182.411 142.124C182.361 141.876 182.102 141.748 181.854 141.799C175.385 143.226 168.973 144.434 162.268 144.334C161.981 144.316 161.813 144.505 161.794 144.793C161.845 145.04 162.034 145.208 162.322 145.227ZM72.755 256.501C73.9352 263.023 75.7093 269.294 79.6914 274.752C79.8113 274.96 80.139 275.048 80.3068 274.859C80.5145 274.739 80.6023 274.411 80.3731 274.174C76.5402 268.814 74.7768 262.722 73.6366 256.269C73.5859 256.022 73.3567 255.785 73.0397 255.875C72.832 255.995 72.6643 256.184 72.755 256.501ZM212.478 204.275C217.992 197.675 223.506 191.074 227.895 183.646C228.023 183.387 227.972 183.14 227.714 183.012C227.456 182.884 227.208 182.935 227.08 183.193C222.76 190.582 217.275 197.073 211.761 203.673C211.593 203.862 211.615 204.219 211.804 204.387C212.022 204.446 212.31 204.464 212.478 204.275ZM142.902 288.771C135.903 298.075 128.484 304.575 118.575 310.758C118.367 310.878 118.279 311.205 118.399 311.413C118.519 311.621 118.847 311.709 119.055 311.589C129.103 305.326 136.66 298.747 143.688 289.333C143.856 289.143 143.765 288.826 143.576 288.659C143.387 288.491 143.03 288.512 142.902 288.771Z" fill="black"/>
</g>
<defs>
<clipPath id="clip0_166_69">
<rect width="361.715" height="416.824" fill="white" transform="translate(0 180.858) rotate(-30)"/>
</clipPath>
</defs>
</svg>
