<svg width="318" height="301" viewBox="0 0 318 301" fill="none" xmlns="http://www.w3.org/2000/svg">
<g opacity="0.3" clip-path="url(#clip0_246_379)">
<path fill-rule="evenodd" clip-rule="evenodd" d="M102.87 127.12C99.7249 126.791 96.667 126.537 93.4944 126.95C86.4519 127.789 79.8184 130.814 72.8441 132.018C67.937 132.854 62.8059 132.886 57.915 132.283C47.2169 130.902 37.2107 126.674 28.8945 119.766C26.0932 117.439 23.6698 114.67 21.0575 112.123C18.1759 109.267 15.1945 106.173 11.7777 103.853C10.5677 103.044 9.32594 102.36 8.08419 101.677C7.40056 101.32 7.44442 101.357 6.71691 100.962C6.41593 100.781 5.46166 100.65 5.78224 100.543C8.2213 99.6532 11.072 99.8819 13.6413 99.6397C18.8237 99.1928 24.0001 98.6643 29.1947 98.3808C45.6071 97.6298 63.4779 98.8187 78.2729 106.698C87.9376 111.857 94.6252 119.508 102.318 126.875L102.87 127.12ZM149.649 150.365C141.855 133.352 122.057 127.22 110.36 113.511C100.373 101.804 96.4229 87.3247 96.0789 72.1929C96.0041 69.5286 96.011 66.8578 95.729 64.1686C95.7108 63.9235 95.0948 61.7123 95.246 61.5362C95.4727 61.2719 95.8857 61.8558 96.1867 62.0376C96.5316 62.2571 96.7948 62.483 97.1018 62.7465C98.7127 63.976 100.248 65.2936 101.891 66.3974C108.931 71.0634 116.262 75.2136 122.893 80.4457C135.29 90.3203 145.858 103.214 150.611 118.534C152.498 124.59 152.54 130.132 152.468 136.341C152.392 141.4 152.404 146.534 151.292 151.469C151.687 151.807 152 152.153 152.319 152.58L151.234 151.802L151.197 151.846L149.905 151.043C149.899 150.962 149.855 150.924 149.805 150.805L148.551 149.958C143.952 148.305 137.512 149.508 133.578 150.185C119.435 152.731 105.393 159.417 90.8511 158.255C82.6696 157.581 73.9813 156.166 66.4599 152.77C63.6997 151.549 61.198 149.937 58.5829 148.457C57.7677 147.987 56.9585 147.599 56.0677 147.217C55.98 147.141 55.5595 147.01 55.3024 146.866C55.0075 146.765 54.7565 146.703 54.4615 146.603C54.2921 146.534 54.882 146.734 55.0514 146.803C55.0952 146.841 55.1769 146.834 55.2646 146.91C59.7957 148.198 65.5026 146.519 69.72 145.244C76.4264 143.199 83.2948 141.675 90.2312 140.516C101.874 138.577 114.552 136.763 126.24 139.299C133.295 140.841 139.966 144.961 146.219 148.415L148.47 149.964C148.966 150.008 149.304 150.145 149.649 150.365ZM201.748 204.866L202.217 203.433C203.154 200.566 202.728 197.601 202.183 194.686C200.782 187.442 197.715 180.986 194.359 174.511C187.504 161.286 180.757 145.095 184.885 129.9C187.402 120.666 192.065 112.125 194.632 103.01C195.513 99.9422 195.936 96.7869 196.107 93.5692C196.16 92.6203 196.207 91.5896 196.215 90.603C196.223 90.1505 195.931 88.982 196.244 89.3273C198.135 91.5619 199.307 94.6332 200.884 97.0568C209.434 110.437 216.269 124.485 218.401 140.463C220.187 154.003 217.423 168.762 213.207 181.663C211.802 185.963 209.826 189.774 207.994 193.861C206.302 197.608 204.607 201.89 202.018 205.174L203.488 207.277C202.95 206.662 202.411 206.047 201.791 205.438C201.753 205.482 201.715 205.526 201.64 205.614L201.703 205.363C195.212 199.257 185.293 197.857 176.715 197.378C157.745 196.316 138.57 199.132 120.172 193.055C110.653 189.857 102.234 183.778 95.9867 175.969C93.7267 173.189 91.7751 170.137 89.5528 167.312C88.9583 166.496 88.2821 165.686 87.612 164.958C87.3428 164.651 87.0296 164.306 86.7226 164.042C86.5471 163.891 85.9013 163.49 86.1523 163.553C88.4617 164.234 90.7077 165.168 93.0805 165.598C98.5295 166.527 104.208 166.124 109.69 166.393C117.853 166.822 126.023 167.332 134.046 168.635C146.224 170.598 159.272 174.301 170.361 179.841C181.068 185.206 190.638 192.96 199.183 201.288L201.748 204.866ZM224.628 248.592C217.586 244.46 209.084 243.894 201.179 243.075C185.991 241.512 170.434 241.62 155.877 236.393C151.993 234.971 147.978 233.437 144.599 231.073C138.543 226.946 134.131 220.636 130.543 214.344C128.604 210.922 127.144 207.298 125.363 203.781C124.832 202.714 124.257 201.608 123.689 200.585C123.357 199.995 123.401 200.032 123.164 199.599C123.02 199.323 122.437 198.67 122.77 198.726C125.338 199.018 128.139 201.346 130.435 202.398C133.835 203.94 137.494 205.091 141.128 205.916C156.424 209.483 171.936 212.089 186.775 217.254C192.68 219.338 198.917 221.479 204.14 224.891C209.061 228.121 213.704 232.563 217.29 237.171C219.788 240.385 221.858 243.921 224.632 246.99L224.628 248.592ZM228.217 257.102C231.017 250.023 229.556 241.962 229.173 234.598C228.728 224.732 228.66 214.426 230.4 204.677C231.763 197.053 234.115 188.899 238.734 182.539C244.659 174.394 252.795 168.375 258.331 159.972C258.476 159.714 258.499 160.575 258.561 160.858C258.629 161.222 258.659 161.63 258.69 162.039C258.757 162.937 258.748 163.924 258.815 164.823C258.965 167.399 259.322 170 259.517 172.614C260.213 180.324 260.036 187.896 259.583 195.614C259.214 202.257 258.562 208.963 256.781 215.388C252.04 232.273 240.978 247.558 227.785 259.026L228.217 257.102Z" fill="#98B49A"/>
<path fill-rule="evenodd" clip-rule="evenodd" d="M102.175 126.599C99.4448 125.786 98.5769 126.265 101.05 126.934C168.3 146.029 227.869 221.472 234.351 289.364C234.363 289.527 234.539 289.677 234.702 289.665C234.865 289.652 235.017 289.476 235.004 289.312C228.529 221.503 169.261 146.242 102.175 126.599Z" fill="#768385"/>
</g>
<defs>
<clipPath id="clip0_246_379">
<rect width="297" height="141.372" fill="white" transform="translate(92.0703) rotate(40.6368)"/>
</clipPath>
</defs>
</svg>
