<svg width="134" height="38" viewBox="0 0 134 38" fill="none" xmlns="http://www.w3.org/2000/svg">
<path d="M2.04786 28V8.26H10.2239C13.6399 8.26 16.2905 9.11867 18.1759 10.836C20.0612 12.5533 21.0039 14.98 21.0039 18.116C21.0039 21.252 20.0612 23.688 18.1759 25.424C16.2905 27.1413 13.6399 28 10.2239 28H2.04786ZM7.19986 23.828H9.88786C11.8479 23.828 13.2945 23.3613 14.2279 22.428C15.1799 21.476 15.6559 20.0387 15.6559 18.116C15.6559 16.1933 15.1799 14.7653 14.2279 13.832C13.2759 12.8987 11.8292 12.432 9.88786 12.432H7.19986V23.828ZM33.5796 28.308C31.5822 28.308 29.8276 27.888 28.3156 27.048C26.8222 26.1893 25.6556 24.9947 24.8156 23.464C23.9756 21.9333 23.5556 20.1507 23.5556 18.116C23.5556 16.0627 23.9662 14.28 24.7876 12.768C25.6276 11.2373 26.8036 10.052 28.3156 9.212C29.8276 8.372 31.5822 7.952 33.5796 7.952C35.5769 7.952 37.3222 8.372 38.8156 9.212C40.3276 10.052 41.5036 11.2373 42.3436 12.768C43.1836 14.28 43.6036 16.0627 43.6036 18.116C43.6036 20.1507 43.1836 21.9333 42.3436 23.464C41.5036 24.9947 40.3276 26.1893 38.8156 27.048C37.3222 27.888 35.5769 28.308 33.5796 28.308ZM33.5796 23.996C35.0356 23.996 36.1742 23.4827 36.9956 22.456C37.8356 21.4107 38.2556 19.964 38.2556 18.116C38.2556 16.268 37.8449 14.8307 37.0236 13.804C36.2022 12.7773 35.0542 12.264 33.5796 12.264C32.1049 12.264 30.9569 12.7773 30.1356 13.804C29.3142 14.8307 28.9036 16.268 28.9036 18.116C28.9036 19.964 29.3142 21.4107 30.1356 22.456C30.9569 23.4827 32.1049 23.996 33.5796 23.996ZM46.6455 28V8.26H50.4255L59.4975 19.572V8.26H64.2575V28H60.5055L51.4335 16.688V28H46.6455ZM65.4843 28L74.7243 8.26H78.7843L88.0243 28H82.8723L81.1643 23.996H72.3443L70.6363 28H65.4843ZM76.7123 13.636L74.0243 20.048H79.4563L76.7683 13.636H76.7123ZM91.6529 28V12.46H85.3809V8.26H103.077V12.46H96.8049V28H91.6529ZM110.137 28V19.264L102.549 8.26H108.457L112.797 14.672L117.137 8.26H122.877L115.289 19.264V28H110.137Z" fill="white"/>
<circle cx="130" cy="24" r="4" fill="#FFA415"/>
</svg>
