<svg width="280" height="223" viewBox="0 0 280 223" fill="none" xmlns="http://www.w3.org/2000/svg">
<path d="M252.897 222.791C268.165 201.97 277.379 177.332 279.518 151.602C281.658 125.872 276.641 100.051 265.021 76.9942C253.401 53.9375 235.632 34.5432 213.678 20.9554C191.723 7.36761 166.439 0.115679 140.62 0.00137203C114.801 -0.112935 89.4533 6.91483 67.3794 20.3077C45.3055 33.7006 27.3651 52.9368 15.5417 75.8897C3.71833 98.8426 -1.52746 124.618 0.384311 150.366C2.29608 176.115 11.2909 200.833 26.3744 221.788L34.3282 216.063C20.3006 196.574 11.9354 173.586 10.1574 149.641C8.37947 125.695 13.258 101.724 24.2538 80.3774C35.2495 59.0312 51.9341 41.1415 72.4628 28.6862C92.9916 16.2308 116.565 9.69497 140.576 9.80128C164.588 9.90758 188.102 16.6519 208.52 29.2885C228.938 41.9252 245.463 59.9619 256.27 81.4046C267.076 102.847 271.742 126.861 269.752 150.79C267.762 174.719 259.194 197.632 244.994 216.995L252.897 222.791Z" fill="#FFC56A"/>
</svg>
